<?xml version="1.0" encoding="UTF-8"?>
<!DOCTYPE svg PUBLIC "-//W3C//DTD SVG 1.1//EN" "http://www.w3.org/Graphics/SVG/1.1/DTD/svg11.dtd">
<svg xmlns="http://www.w3.org/2000/svg" version="1.1" width="1900px" height="400px" style="shape-rendering:geometricPrecision; text-rendering:geometricPrecision; image-rendering:optimizeQuality; fill-rule:evenodd; clip-rule:evenodd" xmlns:xlink="http://www.w3.org/1999/xlink">
<g><path style="opacity:0.967" fill="#f58d1e" d="M 206.5,371.5 C 205.833,367.5 205.167,367.5 204.5,371.5C 130.191,370.661 75.3579,337.661 40,272.5C 25.1436,240.356 20.1436,206.689 25,171.5C 35.2398,113.941 65.7398,70.7739 116.5,42C 136.705,31.8201 158.038,25.4868 180.5,23C 231.832,22.5 283.166,22.3333 334.5,22.5C 327.443,39.6145 320.11,56.6145 312.5,73.5C 268.837,74.3333 225.17,74.8333 181.5,75C 134.781,82.6106 101.948,108.111 83,151.5C 70.3195,188.32 72.9862,223.986 91,258.5C 128.837,314.225 180.003,331.725 244.5,311C 283.34,293.82 308.007,264.653 318.5,223.5C 298.5,222.833 278.5,222.167 258.5,221.5C 265.519,204.801 272.519,188.135 279.5,171.5C 309.833,171.5 340.167,171.5 370.5,171.5C 378.426,247.137 350.759,305.637 287.5,347C 262.338,361.108 235.338,369.275 206.5,371.5 Z"/></g>
<g><path style="opacity:0.962" fill="#666766" d="M 344.5,22.5 C 432.743,15.6853 496.243,51.6853 535,130.5C 555.199,185.778 550.533,238.778 521,289.5C 490.523,335.758 447.69,362.758 392.5,370.5C 348.838,371.5 305.172,371.833 261.5,371.5C 261.5,370.5 261.5,369.5 261.5,368.5C 273.935,364.615 285.602,359.115 296.5,352C 310.053,342.12 322.72,331.12 334.5,319C 354.5,318.667 374.5,318.333 394.5,318C 437.826,308.674 468.659,283.841 487,243.5C 506.331,187.65 494.164,140.15 450.5,101C 432.716,86.6148 412.383,77.9481 389.5,75C 367.159,74.8331 344.826,74.3331 322.5,73.5C 330.223,56.6625 337.556,39.6625 344.5,22.5 Z"/></g>
<g><path style="opacity:0.966" fill="#666766" d="M 1303.5,22.5 C 1316.83,22.5 1330.17,22.5 1343.5,22.5C 1343.5,112.167 1343.5,201.833 1343.5,291.5C 1330.17,291.5 1316.83,291.5 1303.5,291.5C 1303.67,285.491 1303.5,279.491 1303,273.5C 1276.47,291.958 1247.63,296.458 1216.5,287C 1174.63,270.603 1152.63,239.936 1150.5,195C 1152.23,153.867 1171.57,124.2 1208.5,106C 1233.38,96.451 1258.38,96.1176 1283.5,105C 1290.58,107.951 1297.08,111.785 1303,116.5C 1303.5,85.1684 1303.67,53.8351 1303.5,22.5 Z M 1239.5,138.5 C 1273.75,137.256 1294.92,153.256 1303,186.5C 1305.48,215.38 1293.65,235.88 1267.5,248C 1234.02,257.172 1209.52,246.339 1194,215.5C 1184.8,183.07 1194.97,158.903 1224.5,143C 1229.54,141.151 1234.54,139.651 1239.5,138.5 Z"/></g>
<g><path style="opacity:0.958" fill="#666766" d="M 1575.5,22.5 C 1588.83,22.5 1602.17,22.5 1615.5,22.5C 1615.5,47.8333 1615.5,73.1667 1615.5,98.5C 1634.5,98.3334 1653.5,98.5001 1672.5,99C 1673.49,112.087 1673.82,125.254 1673.5,138.5C 1654.17,138.5 1634.83,138.5 1615.5,138.5C 1615.33,159.836 1615.5,181.169 1616,202.5C 1622.33,233.513 1641.33,250.18 1673,252.5C 1673.67,265.167 1673.67,277.833 1673,290.5C 1642.29,291.483 1616.95,280.149 1597,256.5C 1584.78,241.721 1577.78,224.721 1576,205.5C 1575.5,183.169 1575.33,160.836 1575.5,138.5C 1569.17,138.5 1562.83,138.5 1556.5,138.5C 1556.5,125.167 1556.5,111.833 1556.5,98.5C 1562.83,98.5 1569.17,98.5 1575.5,98.5C 1575.5,73.1667 1575.5,47.8333 1575.5,22.5 Z"/></g>
<g><path style="opacity:0.966" fill="#f58d1d" d="M 742.5,98.5 C 759.17,97.4641 775.504,99.9641 791.5,106C 797.595,109.102 803.429,112.602 809,116.5C 809.499,110.509 809.666,104.509 809.5,98.5C 822.833,98.5 836.167,98.5 849.5,98.5C 849.667,159.834 849.5,221.168 849,282.5C 843.679,318.159 824.845,343.992 792.5,360C 779.702,365.601 766.536,368.101 753,367.5C 752.5,354.504 752.333,341.504 752.5,328.5C 781.397,326.816 799.897,312.15 808,284.5C 809.106,280.878 809.439,277.211 809,273.5C 780.58,293.045 750.08,296.878 717.5,285C 673.985,264.778 653.819,230.612 657,182.5C 663.776,143.11 685.942,116.61 723.5,103C 729.929,101.308 736.263,99.8076 742.5,98.5 Z M 745.5,138.5 C 780.208,137.383 801.375,153.716 809,187.5C 811.195,215.949 799.362,236.116 773.5,248C 744.164,256.89 720.998,248.724 704,223.5C 690.35,194.752 695.516,169.919 719.5,149C 727.599,143.807 736.266,140.307 745.5,138.5 Z"/></g>
<g><path style="opacity:0.963" fill="#f58d1d" d="M 945.5,98.5 C 985.834,95.9171 1017,111.584 1039,145.5C 1055.35,175.508 1056.69,206.175 1043,237.5C 1021.23,276.971 987.734,294.804 942.5,291C 902.719,283.55 876.219,260.717 863,222.5C 851.936,168.799 870.769,129.632 919.5,105C 928.14,102.173 936.807,100.007 945.5,98.5 Z M 948.5,138.5 C 983.184,137.416 1004.35,153.749 1012,187.5C 1013.46,221.088 997.956,242.255 965.5,251C 936.15,253.953 915.317,242.119 903,215.5C 894.107,186.172 902.274,163.006 927.5,146C 934.209,142.295 941.209,139.795 948.5,138.5 Z"/></g>
<g><path style="opacity:0.965" fill="#666766" d="M 1439.5,98.5 C 1459.37,97.0415 1478.37,100.875 1496.5,110C 1499.58,112.29 1502.75,114.457 1506,116.5C 1506.5,110.509 1506.67,104.509 1506.5,98.5C 1519.83,98.5 1533.17,98.5 1546.5,98.5C 1546.5,162.833 1546.5,227.167 1546.5,291.5C 1533.17,291.5 1519.83,291.5 1506.5,291.5C 1506.67,285.491 1506.5,279.491 1506,273.5C 1483.25,289.584 1458.09,295.084 1430.5,290C 1396.3,281.494 1372.47,260.994 1359,228.5C 1344.6,177.831 1359.43,138.331 1403.5,110C 1415.01,104.217 1427.01,100.384 1439.5,98.5 Z M 1442.5,138.5 C 1477.18,137.416 1498.35,153.749 1506,187.5C 1507.46,221.088 1491.96,242.255 1459.5,251C 1430.25,253.797 1409.42,241.964 1397,215.5C 1387.8,183.076 1397.97,158.91 1427.5,143C 1432.48,141.01 1437.48,139.51 1442.5,138.5 Z"/></g>
<g><path style="opacity:0.968" fill="#666766" d="M 1769.5,98.5 C 1793.3,96.8199 1814.8,102.82 1834,116.5C 1834.5,110.509 1834.67,104.509 1834.5,98.5C 1847.83,98.5 1861.17,98.5 1874.5,98.5C 1874.5,162.833 1874.5,227.167 1874.5,291.5C 1861.17,291.5 1847.83,291.5 1834.5,291.5C 1834.67,285.491 1834.5,279.491 1834,273.5C 1813.6,288.309 1790.76,294.143 1765.5,291C 1726.93,283.764 1700.43,261.931 1686,225.5C 1673.48,170.375 1692.32,130.209 1742.5,105C 1751.44,102.013 1760.44,99.8459 1769.5,98.5 Z M 1770.5,138.5 C 1798.45,136.992 1818.62,148.658 1831,173.5C 1840.29,203.92 1831.79,227.753 1805.5,245C 1774.17,258.294 1748.67,251.127 1729,223.5C 1718.68,203.116 1719.34,183.116 1731,163.5C 1740.93,149.956 1754.1,141.623 1770.5,138.5 Z"/></g>
<g><path style="opacity:0.958" fill="#f58d1d" d="M 189.5,171.5 C 216.175,171.167 242.842,171.5 269.5,172.5C 262.295,189.074 254.962,205.574 247.5,222C 221.261,222.171 195.094,222.671 169,223.5C 168.333,222.167 168.333,220.833 169,219.5C 176.121,203.594 182.955,187.594 189.5,171.5 Z"/></g>
<g><path style="opacity:0.951" fill="#666766" d="M 1097.5,230.5 C 1122.81,231.975 1134.31,245.308 1132,270.5C 1125.8,288.352 1113.3,296.185 1094.5,294C 1078.71,289.375 1070.04,278.875 1068.5,262.5C 1070.54,244.8 1080.21,234.133 1097.5,230.5 Z"/></g>
<g><path style="opacity:0.549" fill="#ae7a48" d="M 206.5,371.5 C 205.833,371.5 205.167,371.5 204.5,371.5C 205.167,367.5 205.833,367.5 206.5,371.5 Z"/></g>
</svg>
