<?xml version="1.0" encoding="UTF-8"?>
<!DOCTYPE svg PUBLIC "-//W3C//DTD SVG 1.1//EN" "http://www.w3.org/Graphics/SVG/1.1/DTD/svg11.dtd">
<svg xmlns="http://www.w3.org/2000/svg" version="1.1" width="594px" height="400px" style="shape-rendering:geometricPrecision; text-rendering:geometricPrecision; image-rendering:optimizeQuality; fill-rule:evenodd; clip-rule:evenodd" xmlns:xlink="http://www.w3.org/1999/xlink">
<g><path style="opacity:0.977" fill="#f58c1e" d="M 180.5,11.5 C 236.171,11.1667 291.837,11.5 347.5,12.5C 339.833,29.8333 332.167,47.1667 324.5,64.5C 276.142,65.0338 227.809,65.8671 179.5,67C 126.851,78.2433 92.0173,109.41 75,160.5C 60.9441,221.502 78.7775,270.668 128.5,308C 174.405,336.072 221.071,337.405 268.5,312C 301.472,291.532 322.139,262.365 330.5,224.5C 309.156,224.833 287.823,224.5 266.5,223.5C 274.167,206.167 281.833,188.833 289.5,171.5C 321.833,170.167 354.167,170.167 386.5,171.5C 394.675,251.639 365.342,313.805 298.5,358C 255.026,382.926 208.692,390.259 159.5,380C 106.39,366.22 65.8898,335.72 38,288.5C 18.1127,251.18 10.946,211.513 16.5,169.5C 29.8965,100.202 68.8965,51.3682 133.5,23C 148.88,17.4042 164.547,13.5709 180.5,11.5 Z"/></g>
<g><path style="opacity:0.973" fill="#666766" d="M 358.5,11.5 C 442.756,3.21604 507.256,34.5494 552,105.5C 575.174,148.115 581.507,193.115 571,240.5C 554.775,300.39 518.608,343.557 462.5,370C 442.66,378.235 421.993,382.902 400.5,384C 356.83,384.833 313.163,384.667 269.5,383.5C 299.441,371.71 325.108,353.877 346.5,330C 368.203,329.932 389.87,329.265 411.5,328C 447.358,321.324 475.858,303.158 497,273.5C 523.501,231.981 527.501,188.314 509,142.5C 487.026,98.8657 451.859,73.3657 403.5,66C 380.826,65.8331 358.159,65.3331 335.5,64.5C 343.454,46.9285 351.121,29.2619 358.5,11.5 Z"/></g>
<g><path style="opacity:0.961" fill="#f58d1d" d="M 192.5,170.5 C 221.169,170.333 249.835,170.5 278.5,171C 270.371,188.759 262.371,206.592 254.5,224.5C 226.508,225.5 198.508,225.833 170.5,225.5C 178.104,207.29 185.437,188.957 192.5,170.5 Z"/></g>
</svg>
